<svg width="192" height="192" viewBox="0 0 192 192" xmlns="http://www.w3.org/2000/svg">
  <defs>
    <linearGradient id="iconGradient192" x1="0%" y1="0%" x2="100%" y2="100%">
      <stop offset="0%" style="stop-color:#2563eb;stop-opacity:1" />
      <stop offset="100%" style="stop-color:#1d4ed8;stop-opacity:1" />
    </linearGradient>
  </defs>
  
  <!-- Background -->
  <rect width="192" height="192" rx="42" fill="url(#iconGradient192)"/>
  
  <!-- QR Code representation -->
  <g fill="white">
    <!-- Top-left corner -->
    <rect x="32" y="32" width="42" height="42" rx="6"/>
    <rect x="42" y="42" width="22" height="22" fill="#2563eb"/>
    
    <!-- Top-right corner -->
    <rect x="118" y="32" width="42" height="42" rx="6"/>
    <rect x="128" y="42" width="22" height="22" fill="#2563eb"/>
    
    <!-- Bottom-left corner -->
    <rect x="32" y="118" width="42" height="42" rx="6"/>
    <rect x="42" y="128" width="22" height="22" fill="#2563eb"/>
    
    <!-- Center pattern -->
    <rect x="86" y="86" width="20" height="20" rx="3"/>
    
    <!-- Data pattern -->
    <rect x="84" y="32" width="10" height="10"/>
    <rect x="96" y="32" width="10" height="10"/>
    <rect x="84" y="44" width="10" height="10"/>
    <rect x="108" y="44" width="10" height="10"/>
    <rect x="76" y="56" width="10" height="10"/>
    <rect x="88" y="56" width="10" height="10"/>
    <rect x="100" y="56" width="10" height="10"/>
    <rect x="112" y="56" width="10" height="10"/>
    
    <rect x="32" y="84" width="10" height="10"/>
    <rect x="44" y="84" width="10" height="10"/>
    <rect x="56" y="84" width="10" height="10"/>
    <rect x="68" y="84" width="10" height="10"/>
    <rect x="118" y="84" width="10" height="10"/>
    <rect x="130" y="84" width="10" height="10"/>
    <rect x="142" y="84" width="10" height="10"/>
    <rect x="154" y="84" width="10" height="10"/>
    
    <rect x="32" y="96" width="10" height="10"/>
    <rect x="56" y="96" width="10" height="10"/>
    <rect x="118" y="96" width="10" height="10"/>
    <rect x="142" y="96" width="10" height="10"/>
    
    <rect x="84" y="118" width="10" height="10"/>
    <rect x="96" y="118" width="10" height="10"/>
    <rect x="108" y="118" width="10" height="10"/>
    <rect x="84" y="130" width="10" height="10"/>
    <rect x="108" y="130" width="10" height="10"/>
    <rect x="76" y="142" width="10" height="10"/>
    <rect x="88" y="142" width="10" height="10"/>
    <rect x="100" y="142" width="10" height="10"/>
    <rect x="112" y="142" width="10" height="10"/>
    <rect x="84" y="154" width="10" height="10"/>
    <rect x="96" y="154" width="10" height="10"/>
  </g>
</svg>